<svg width="126" height="44" viewBox="0 0 126 44" fill="none" xmlns="http://www.w3.org/2000/svg">
<g clip-path="url(#clip0_517_519)">
<path d="M39.8134 23.6088C39.8134 31.303 33.5784 37.538 25.8841 37.538H8.93258L10.7858 31.7187L17.8024 9.67948H25.8841C27.7958 9.67948 29.6165 10.0648 31.2727 10.7598C32.9527 11.4656 34.4638 12.4896 35.7325 13.7582C38.2525 16.2782 39.8134 19.7616 39.8134 23.6066V23.6088Z" fill="#BE1E2D"/>
<path d="M15.5898 43.8056L17.5859 37.538H8.90227L6.90619 43.8056H15.5898Z" fill="#BE1E2D"/>
<path opacity="0.15" d="M24.2929 32.6821L31.2727 10.7598C29.6165 10.0627 27.7958 9.67948 25.8841 9.67948H17.8024L10.4783 32.6821H24.2929Z" fill="black"/>
<path d="M30.8808 0H13.9293C6.23722 0 0 6.23722 0 13.9293C0 21.6213 6.23722 27.8586 13.9293 27.8586H22.011L30.8808 0Z" fill="#122241"/>
<path d="M53.0326 22.1041C52.7403 22.6324 52.29 23.0589 51.6838 23.3836C51.0776 23.7083 50.3242 23.8707 49.4258 23.8707H47.7631V27.8239H45.0807V16.8108H49.4258C50.3047 16.8108 51.0473 16.9624 51.6535 17.2655C52.2597 17.5686 52.7143 17.9864 53.0174 18.5211C53.3205 19.0537 53.4721 19.6664 53.4721 20.357C53.4721 20.9957 53.3248 21.578 53.0326 22.1063V22.1041ZM50.3654 21.3724C50.6165 21.1321 50.7421 20.7922 50.7421 20.3527C50.7421 19.9132 50.6165 19.5733 50.3654 19.333C50.1142 19.0927 49.7332 18.9714 49.2201 18.9714H47.7609V21.7317H49.2201C49.7332 21.7317 50.1142 21.6127 50.3654 21.3702V21.3724Z" fill="#BE1E2D"/>
<path d="M61.7248 25.8755H57.6136L56.9555 27.8218H54.1475L58.1332 16.8087H61.2399L65.2256 27.8218H62.3852L61.727 25.8755H61.7248ZM61.0342 23.8058L59.6703 19.7746L58.3215 23.8058H61.0364H61.0342Z" fill="#BE1E2D"/>
<path d="M68.25 27.5381C67.6113 27.2762 67.1026 26.8908 66.7215 26.3777C66.3405 25.8646 66.1392 25.2476 66.1175 24.5267H68.9731C69.0142 24.9337 69.1549 25.2455 69.3974 25.4598C69.6377 25.6741 69.9516 25.7824 70.3392 25.7824C70.7267 25.7824 71.0493 25.6914 71.2809 25.5074C71.5104 25.3256 71.6252 25.0701 71.6252 24.7475C71.6252 24.4747 71.5342 24.2517 71.3502 24.0721C71.1662 23.8945 70.9432 23.7473 70.6747 23.6326C70.4085 23.5178 70.0296 23.3879 69.5381 23.2407C68.8259 23.0221 68.2457 22.8012 67.7975 22.5826C67.3472 22.3639 66.9597 22.0392 66.6371 21.6105C66.3124 21.1819 66.15 20.6233 66.15 19.9327C66.15 18.9087 66.5202 18.1055 67.2628 17.5253C68.0054 16.945 68.9731 16.6549 70.166 16.6549C71.3589 16.6549 72.3569 16.945 73.0995 17.5253C73.8421 18.1055 74.2382 18.913 74.2924 19.95H71.3892C71.3675 19.5949 71.2376 19.3135 70.9973 19.11C70.757 18.9065 70.4474 18.8047 70.0707 18.8047C69.746 18.8047 69.484 18.8913 69.287 19.0645C69.0878 19.2377 68.9882 19.4867 68.9882 19.8093C68.9882 20.1643 69.1549 20.4414 69.4905 20.6406C69.8261 20.8398 70.3478 21.0541 71.0601 21.2836C71.7702 21.5239 72.3482 21.7534 72.7942 21.9742C73.238 22.1929 73.6234 22.5133 73.9481 22.9311C74.2729 23.349 74.4353 23.888 74.4353 24.5462C74.4353 25.2043 74.275 25.7434 73.9568 26.2565C73.6364 26.7696 73.1753 27.1766 72.5691 27.4797C71.9629 27.7828 71.2463 27.9343 70.4193 27.9343C69.5923 27.9343 68.893 27.8044 68.2543 27.5425L68.25 27.5381Z" fill="#BE1E2D"/>
<path d="M77.8992 27.5381C77.2605 27.2762 76.7517 26.8908 76.3707 26.3777C75.9897 25.8646 75.7883 25.2476 75.7667 24.5267H78.6223C78.6634 24.9337 78.8041 25.2455 79.0466 25.4598C79.2869 25.6741 79.6008 25.7824 79.9883 25.7824C80.3759 25.7824 80.6984 25.6914 80.9301 25.5074C81.1596 25.3256 81.2743 25.0701 81.2743 24.7475C81.2743 24.4747 81.1834 24.2517 80.9994 24.0721C80.8154 23.8945 80.5924 23.7473 80.3239 23.6326C80.0576 23.5178 79.6788 23.3879 79.1873 23.2407C78.475 23.0221 77.8948 22.8012 77.4467 22.5826C76.9964 22.3639 76.6089 22.0392 76.2863 21.6105C75.9615 21.1819 75.7992 20.6233 75.7992 19.9327C75.7992 18.9087 76.1694 18.1055 76.912 17.5253C77.6545 16.945 78.6223 16.6549 79.8151 16.6549C81.008 16.6549 82.0061 16.945 82.7487 17.5253C83.4912 18.1055 83.8874 18.913 83.9415 19.95H81.0383C81.0167 19.5949 80.8868 19.3135 80.6465 19.11C80.4062 18.9065 80.0966 18.8047 79.7199 18.8047C79.3951 18.8047 79.1332 18.8913 78.9362 19.0645C78.737 19.2377 78.6374 19.4867 78.6374 19.8093C78.6374 20.1643 78.8041 20.4414 79.1397 20.6406C79.4752 20.8398 79.997 21.0541 80.7093 21.2836C81.4194 21.5239 81.9974 21.7534 82.4434 21.9742C82.8872 22.1929 83.2726 22.5133 83.5973 22.9311C83.9221 23.349 84.0844 23.888 84.0844 24.5462C84.0844 25.2043 83.9242 25.7434 83.606 26.2565C83.2856 26.7696 82.8244 27.1766 82.2182 27.4797C81.6121 27.7828 80.8955 27.9343 80.0684 27.9343C79.2414 27.9343 78.5422 27.8044 77.9035 27.5425L77.8992 27.5381Z" fill="#BE1E2D"/>
<path d="M93.6817 22.1041C93.3894 22.6324 92.9391 23.0589 92.3329 23.3836C91.7267 23.7083 90.9733 23.8707 90.0749 23.8707H88.4122V27.8239H85.7298V16.8108H90.0749C90.9538 16.8108 91.6964 16.9624 92.3026 17.2655C92.9088 17.5686 93.3634 17.9864 93.6665 18.5211C93.9696 19.0537 94.1211 19.6664 94.1211 20.357C94.1211 20.9957 93.9739 21.578 93.6817 22.1063V22.1041ZM91.0144 21.3724C91.2656 21.1321 91.3911 20.7922 91.3911 20.3527C91.3911 19.9132 91.2656 19.5733 91.0144 19.333C90.7633 19.0927 90.3823 18.9714 89.8692 18.9714H88.41V21.7317H89.8692C90.3823 21.7317 90.7633 21.6127 91.0144 21.3702V21.3724Z" fill="#BE1E2D"/>
<path d="M97.8773 27.2091C97.0135 26.7285 96.3294 26.0552 95.8228 25.1935C95.3162 24.3297 95.0607 23.3598 95.0607 22.2838C95.0607 21.2078 95.314 20.2401 95.8228 19.3806C96.3294 18.5233 97.0157 17.8543 97.8773 17.3715C98.7411 16.8909 99.6894 16.6506 100.724 16.6506C101.759 16.6506 102.709 16.8909 103.571 17.3715C104.435 17.8522 105.115 18.5211 105.611 19.3806C106.106 20.2379 106.355 21.2057 106.355 22.2838C106.355 23.362 106.104 24.3319 105.602 25.1935C105.1 26.0573 104.42 26.7285 103.562 27.2091C102.705 27.6897 101.759 27.93 100.722 27.93C99.6851 27.93 98.7368 27.6897 97.8752 27.2091H97.8773ZM102.835 24.6046C103.363 24.0201 103.627 23.2451 103.627 22.2816C103.627 21.3182 103.363 20.5324 102.835 19.9522C102.307 19.372 101.603 19.0819 100.724 19.0819C99.8453 19.0819 99.1265 19.3698 98.5983 19.9457C98.07 20.5215 97.8059 21.3009 97.8059 22.2838C97.8059 23.2667 98.07 24.0331 98.5983 24.6133C99.1265 25.1935 99.8344 25.4836 100.724 25.4836C101.614 25.4836 102.307 25.1913 102.835 24.6046Z" fill="#BE1E2D"/>
<path d="M113.465 27.8218L111.174 23.6651H110.531V27.8218H107.849V16.8087H112.352C113.22 16.8087 113.961 16.9602 114.571 17.2633C115.184 17.5664 115.641 17.9821 115.944 18.5103C116.247 19.0386 116.398 19.6274 116.398 20.2747C116.398 21.0065 116.193 21.6603 115.779 22.2362C115.366 22.8121 114.757 23.2191 113.952 23.4594L116.494 27.8218H113.465ZM110.531 21.7664H112.194C112.686 21.7664 113.054 21.6473 113.3 21.4048C113.545 21.1645 113.668 20.8246 113.668 20.3852C113.668 19.9457 113.545 19.6382 113.3 19.3958C113.054 19.1555 112.686 19.0342 112.194 19.0342H110.531V21.7642V21.7664Z" fill="#BE1E2D"/>
<path d="M126 16.8087V18.9585H123.082V27.8218H120.399V18.9585H117.481V16.8087H126Z" fill="#BE1E2D"/>
<path d="M75.7992 30.4021C75.9872 30.4021 76.154 30.4286 76.2992 30.4841L76.4379 30.5495L76.4389 30.5505C76.6073 30.6502 76.7384 30.7855 76.8236 30.9626C76.9068 31.1338 76.9486 31.3289 76.9486 31.5407L76.9398 31.6999C76.9223 31.8571 76.8785 32.0089 76.8051 32.1433C76.7084 32.3201 76.5738 32.4606 76.3988 32.5593L76.3998 32.5603C76.226 32.6616 76.0279 32.7077 75.808 32.7077H74.5873V34.0935H74.1859H73.9935V34.0359L73.9867 33.8943V30.4021H75.7992ZM57.9711 30.3435C58.1579 30.3435 58.3348 30.3635 58.4984 30.4021C58.6644 30.4413 58.8146 30.505 58.9447 30.5925C59.076 30.6809 59.1801 30.7928 59.2533 30.9294C59.3271 31.0672 59.3646 31.2284 59.3646 31.4109V31.571H58.768V31.3855C58.768 31.2828 58.7363 31.2004 58.6762 31.1335C58.6113 31.0614 58.5214 31.0033 58.4008 30.9577C58.3138 30.9244 58.2147 30.9029 58.1049 30.8943L57.9906 30.8894C57.7698 30.8894 57.5924 30.9135 57.4603 30.9548C57.3239 30.997 57.2324 31.052 57.1771 31.114C57.1209 31.1771 57.0961 31.2429 57.0961 31.3161L57.1019 31.3825C57.112 31.4452 57.1367 31.4966 57.1732 31.5378C57.2287 31.6004 57.3065 31.6556 57.4086 31.7009C57.5154 31.7482 57.6368 31.7899 57.7738 31.8279C57.9137 31.8666 58.0583 31.9056 58.2064 31.9421C58.3588 31.9796 58.5079 32.023 58.6517 32.0739C58.7987 32.126 58.9333 32.1911 59.0551 32.2693C59.182 32.3507 59.2817 32.4519 59.3568 32.573C59.4362 32.7009 59.471 32.8548 59.4711 33.028L59.4594 33.2146C59.4346 33.3934 59.3715 33.5501 59.268 33.6814C59.1667 33.8097 59.0395 33.91 58.8861 33.9841L58.724 34.0495C58.5012 34.1253 58.2447 34.1609 57.9574 34.1609H57.6273L57.6547 34.1423C57.5673 34.1332 57.4803 34.1219 57.3949 34.1052C57.2085 34.0688 57.0411 34.009 56.893 33.9196C56.743 33.8292 56.6252 33.711 56.5385 33.5642C56.4493 33.4131 56.4077 33.2301 56.4076 33.0202V32.9724C56.4076 32.9547 56.4081 32.9294 56.4154 32.9001L56.434 32.8249H57.0141V32.9245C57.0141 32.9367 57.0147 32.961 57.0121 32.99C57.0102 33.0108 57.0092 33.0277 57.0092 33.0417L57.017 33.1325C57.0311 33.2175 57.0651 33.2891 57.1176 33.3484C57.1952 33.4333 57.3023 33.5014 57.4418 33.5466C57.5831 33.5922 57.7476 33.615 57.932 33.615L58.1537 33.6023C58.2384 33.5942 58.324 33.5778 58.4115 33.5534C58.4971 33.5295 58.5756 33.4981 58.6449 33.4577C58.709 33.4203 58.7617 33.3691 58.8041 33.3083C58.8307 33.2684 58.8494 33.2196 58.8568 33.1589L58.8607 33.0935C58.8607 32.9877 58.8317 32.9071 58.7816 32.8454C58.7259 32.7771 58.647 32.7186 58.5473 32.6716C58.4417 32.622 58.3215 32.5745 58.184 32.5349C58.0427 32.4942 57.8986 32.4562 57.7504 32.4196C57.5979 32.3821 57.4491 32.3382 57.306 32.2898C57.159 32.24 57.0257 32.1775 56.9057 32.1013C56.7813 32.0223 56.6819 31.9227 56.6088 31.8034C56.5295 31.6777 56.4945 31.5263 56.4945 31.3571C56.4945 31.2067 56.5255 31.0687 56.5863 30.9421C56.6485 30.8128 56.7427 30.7048 56.8676 30.6159C56.9929 30.5267 57.1477 30.4612 57.3285 30.4138C57.5111 30.3682 57.7265 30.3435 57.9711 30.3435ZM98.4642 30.3435C98.6511 30.3435 98.828 30.3635 98.9916 30.4021C99.1575 30.4413 99.3078 30.505 99.4379 30.5925C99.5689 30.6807 99.6741 30.7925 99.7475 30.9294C99.8213 31.0674 99.8577 31.2289 99.8578 31.4109V31.571H99.2611V31.3855C99.2611 31.2827 99.2295 31.2004 99.1693 31.1335C99.1045 31.0614 99.0146 31.0033 98.8939 30.9577C98.807 30.9244 98.7078 30.9029 98.598 30.8943L98.4838 30.8894C98.2629 30.8894 98.0856 30.9135 97.9535 30.9548C97.817 30.997 97.7256 31.052 97.6703 31.114C97.6141 31.1771 97.5892 31.2429 97.5892 31.3161L97.5951 31.3825C97.6052 31.4452 97.6299 31.4966 97.6664 31.5378C97.7218 31.6004 97.7996 31.6556 97.9017 31.7009C98.0086 31.7481 98.1299 31.7899 98.267 31.8279C98.4068 31.8666 98.5515 31.9056 98.6996 31.9421C98.8519 31.9796 99.001 32.023 99.1449 32.0739C99.2919 32.126 99.4264 32.1911 99.5482 32.2693C99.6752 32.3507 99.7749 32.4519 99.85 32.573C99.9293 32.7009 99.9642 32.8548 99.9642 33.028L99.9525 33.2146C99.9277 33.3934 99.8646 33.5501 99.7611 33.6814C99.6599 33.8097 99.5327 33.91 99.3793 33.9841L99.2172 34.0495C98.9943 34.1253 98.7379 34.1609 98.4506 34.1609H98.1205L98.1478 34.1423C98.0604 34.1332 97.9735 34.1219 97.8881 34.1052C97.7016 34.0688 97.5343 34.009 97.3861 33.9196C97.2361 33.8292 97.1183 33.711 97.0316 33.5642C96.9425 33.4131 96.9008 33.2301 96.9008 33.0202V32.9724C96.9008 32.9547 96.9013 32.9294 96.9086 32.9001L96.9271 32.8249H97.5072V32.9245C97.5072 32.9367 97.5079 32.961 97.5053 32.99C97.5034 33.0108 97.5023 33.0277 97.5023 33.0417L97.5101 33.1325C97.5243 33.2175 97.5583 33.2891 97.6107 33.3484C97.6883 33.4333 97.7954 33.5014 97.935 33.5466C98.0763 33.5922 98.2407 33.615 98.4252 33.615L98.6469 33.6023C98.7315 33.5942 98.8171 33.5778 98.9047 33.5534C98.9903 33.5295 99.0687 33.4981 99.1381 33.4577C99.2027 33.4201 99.2562 33.3686 99.2982 33.3083C99.3246 33.2687 99.3427 33.2199 99.35 33.1589L99.3539 33.0935C99.3539 32.9877 99.3249 32.9071 99.2748 32.8454C99.2191 32.7771 99.1401 32.7186 99.0404 32.6716C98.9349 32.622 98.8147 32.5745 98.6771 32.5349C98.5358 32.4942 98.3918 32.4562 98.2435 32.4196C98.091 32.3821 97.9422 32.3382 97.7992 32.2898C97.6522 32.24 97.5189 32.1775 97.3988 32.1013C97.2745 32.0223 97.1751 31.9227 97.1019 31.8034C97.0227 31.6777 96.9877 31.5263 96.9877 31.3571C96.9877 31.2067 97.0187 31.0687 97.0795 30.9421C97.1416 30.8128 97.2359 30.7048 97.3607 30.6159C97.4861 30.5267 97.6409 30.4612 97.8217 30.4138C98.0042 30.3682 98.2196 30.3435 98.4642 30.3435ZM124.376 30.3435C124.563 30.3435 124.74 30.3635 124.904 30.4021C125.07 30.4413 125.22 30.505 125.35 30.5925C125.481 30.6807 125.586 30.7925 125.66 30.9294C125.733 31.0671 125.771 31.2285 125.771 31.4109V31.571H125.173V31.3855C125.173 31.2827 125.142 31.2004 125.081 31.1335C125.017 31.0614 124.927 31.0031 124.807 30.9577C124.72 30.9244 124.62 30.9028 124.51 30.8943L124.396 30.8894C124.175 30.8894 123.998 30.9135 123.866 30.9548C123.729 30.997 123.638 31.052 123.582 31.114C123.526 31.1771 123.501 31.2429 123.501 31.3161L123.507 31.3825C123.518 31.4448 123.543 31.4963 123.579 31.5378C123.635 31.6003 123.713 31.6558 123.815 31.7009C123.922 31.7481 124.043 31.7899 124.18 31.8279C124.32 31.8666 124.464 31.9057 124.612 31.9421C124.764 31.9796 124.913 32.023 125.057 32.0739C125.204 32.126 125.338 32.1911 125.46 32.2693C125.587 32.3507 125.687 32.4519 125.762 32.573C125.841 32.7009 125.876 32.8548 125.876 33.028L125.865 33.2146C125.84 33.3934 125.777 33.5501 125.673 33.6814C125.572 33.8097 125.445 33.91 125.291 33.9841L125.129 34.0495C124.907 34.1253 124.651 34.1608 124.364 34.1609H124.122L124.135 34.1472C124.022 34.1383 123.91 34.1266 123.8 34.1052C123.614 34.0688 123.446 34.009 123.298 33.9196C123.148 33.8292 123.03 33.711 122.944 33.5642C122.855 33.4131 122.813 33.2301 122.813 33.0202V32.9724C122.813 32.9547 122.813 32.9294 122.821 32.9001L122.839 32.8249H123.419V32.9245C123.419 32.9367 123.42 32.961 123.417 32.99C123.416 33.0084 123.415 33.0236 123.415 33.0417L123.423 33.1325C123.437 33.2178 123.471 33.2893 123.523 33.3484C123.6 33.4333 123.708 33.5014 123.847 33.5466C123.988 33.5923 124.153 33.615 124.337 33.615C124.398 33.615 124.47 33.6107 124.559 33.6023C124.644 33.5942 124.729 33.5778 124.817 33.5534C124.903 33.5294 124.982 33.498 125.051 33.4577C125.115 33.4203 125.168 33.3689 125.21 33.3083C125.237 33.2687 125.255 33.2199 125.262 33.1589L125.266 33.0935C125.266 32.9876 125.237 32.9071 125.187 32.8454C125.131 32.7771 125.052 32.7186 124.953 32.6716C124.847 32.6219 124.727 32.5745 124.589 32.5349C124.448 32.4942 124.304 32.4562 124.156 32.4196C124.003 32.3821 123.855 32.3381 123.712 32.2898C123.565 32.24 123.432 32.1775 123.312 32.1013C123.188 32.0224 123.087 31.9231 123.014 31.8034C122.935 31.6777 122.9 31.5263 122.9 31.3571C122.9 31.2067 122.931 31.0687 122.992 30.9421C123.054 30.8129 123.148 30.7048 123.273 30.6159C123.398 30.5267 123.553 30.4612 123.734 30.4138C123.916 30.3681 124.132 30.3435 124.376 30.3435ZM46.849 30.3464C47.0329 30.3619 47.1991 30.4008 47.351 30.4636C47.553 30.5472 47.7185 30.668 47.8392 30.8298C47.9612 30.9933 48.0209 31.1837 48.0209 31.3962V31.5671H47.4555V31.4255L47.4447 31.3279C47.4286 31.2364 47.3956 31.1637 47.349 31.1081C47.281 31.0272 47.19 30.9633 47.0726 30.9236C46.9502 30.8821 46.8095 30.8591 46.6478 30.8591C46.5488 30.8591 46.4518 30.8692 46.3549 30.8894C46.2629 30.9085 46.1796 30.9407 46.1039 30.9831L46.1049 30.9841C46.0357 31.026 45.9805 31.0792 45.9398 31.1482C45.9018 31.2111 45.8793 31.2946 45.8793 31.4001C45.8793 31.5327 45.912 31.6367 45.9701 31.7155C46.0324 31.7998 46.1125 31.8615 46.2152 31.9001C46.3252 31.9414 46.4414 31.9636 46.5658 31.9636H46.9711V32.4675H46.5766C46.4385 32.4675 46.3083 32.4859 46.185 32.5202L46.1859 32.5212C46.0718 32.5531 45.9803 32.6096 45.9096 32.6911C45.8462 32.7644 45.808 32.8744 45.808 33.0368C45.808 33.1883 45.8433 33.2994 45.9057 33.3786C45.972 33.4628 46.066 33.5277 46.1928 33.57C46.3234 33.6135 46.4754 33.6364 46.6508 33.6364L46.7904 33.6316C46.8785 33.6255 46.9565 33.6135 47.0248 33.5964L47.1195 33.5671C47.2352 33.5213 47.3161 33.4573 47.3695 33.3747L47.4057 33.3073C47.4263 33.2589 47.4404 33.2034 47.4476 33.1404L47.4535 33.0398V31.9655H48.4389V32.4812H48.0209V33.0241C48.0209 33.2661 47.9683 33.4763 47.8588 33.6491L47.8578 33.6501C47.7736 33.78 47.661 33.884 47.5199 33.9636L47.3695 34.0349C47.1594 34.1189 46.9031 34.1589 46.6068 34.1589H46.6049C46.4083 34.1589 46.2261 34.135 46.0609 34.0876L45.9017 34.0329C45.6941 33.9465 45.5288 33.8199 45.4086 33.654C45.2867 33.4857 45.228 33.2872 45.2279 33.0612C45.2279 32.8133 45.2885 32.603 45.4184 32.4382C45.5046 32.3288 45.6068 32.2443 45.723 32.1814C45.664 32.1401 45.6084 32.0956 45.558 32.0446L45.4721 31.948C45.3542 31.8017 45.3041 31.6146 45.3041 31.3982L45.3139 31.238C45.3351 31.0812 45.3896 30.9362 45.4789 30.8152C45.5949 30.6581 45.7557 30.5356 45.9623 30.4558C46.1645 30.3768 46.3983 30.3396 46.6586 30.3396L46.849 30.3464ZM116.358 30.3415C116.671 30.3416 116.951 30.3911 117.193 30.4948C117.377 30.573 117.533 30.68 117.661 30.8161L117.778 30.9626L117.779 30.9636C117.922 31.1763 117.992 31.4394 117.992 31.7507V31.8503H117.386V31.7507C117.386 31.5433 117.343 31.382 117.264 31.2624C117.182 31.1389 117.07 31.0459 116.919 30.9841C116.766 30.921 116.577 30.8874 116.353 30.8874C116.115 30.8874 115.913 30.9351 115.741 31.0241L115.74 31.0232C115.616 31.0898 115.513 31.1847 115.429 31.3073L115.352 31.4402C115.259 31.6322 115.207 31.8886 115.207 32.2146V32.32C115.207 32.6392 115.259 32.8894 115.352 33.0769L115.428 33.2068C115.512 33.3267 115.616 33.4176 115.741 33.4812C115.91 33.5676 116.115 33.613 116.358 33.613L116.52 33.6062C116.675 33.5939 116.81 33.5635 116.925 33.5163C117.077 33.4541 117.192 33.3599 117.271 33.238L117.323 33.1404C117.368 33.0341 117.394 32.904 117.394 32.7487V32.6491H117.992V32.7487C117.992 33.0622 117.922 33.3311 117.773 33.5446C117.627 33.7535 117.429 33.9113 117.18 34.0114C116.935 34.1099 116.658 34.1589 116.349 34.1589H116.346C115.977 34.1589 115.659 34.0893 115.395 33.948C115.128 33.805 114.927 33.5864 114.791 33.3005C114.689 33.0861 114.627 32.8348 114.602 32.5476L114.59 32.2487C114.59 31.63 114.742 31.1482 115.059 30.822C115.375 30.4972 115.812 30.3415 116.358 30.3415ZM83.2035 30.4021C83.5884 30.4021 83.9195 30.4647 84.1957 30.5935C84.4749 30.7238 84.6907 30.9273 84.8373 31.2019C84.9837 31.4785 85.0541 31.8303 85.0541 32.2517C85.054 32.6732 84.9844 33.0155 84.8383 33.2917L84.8373 33.2927C84.689 33.5682 84.476 33.7732 84.1967 33.906C83.9201 34.0374 83.5884 34.1003 83.2035 34.1003H81.8461V30.4021H83.2035ZM51.2084 30.4665L52.141 32.9734C52.1595 33.0249 52.1853 33.0929 52.2094 33.1628C52.2278 33.2164 52.2466 33.2689 52.265 33.321C52.2828 33.2709 52.3011 33.221 52.3187 33.1696C52.3424 33.1007 52.3654 33.035 52.3881 32.9782L53.309 30.4675L53.3324 30.4021H53.9691L53.9184 30.5368L52.5697 34.0984H51.933L50.5365 30.4021H51.184L51.2084 30.4665ZM55.3539 34.0984H54.7514V30.4021H55.3539V34.0984ZM62.2396 30.4646L63.6908 34.0984H63.0424L63.018 34.0359L62.6762 33.1755H61.059L60.7221 34.0349L60.6976 34.0984H60.0658L60.1205 33.9616L61.5131 30.4646L61.5385 30.4021H62.2142L62.2396 30.4646ZM70.4252 30.4411L71.3969 31.7146L72.35 30.4421L72.3803 30.4021H73.1059L71.7719 32.1648L73.1371 33.9382L73.2611 34.0984H72.515L72.4857 34.0593L71.3842 32.6159L70.2836 34.0593L70.2543 34.0984H69.5209L71.0092 32.1677L69.7728 30.5622L69.6488 30.4021H70.3959L70.4252 30.4411ZM86.7123 34.0984H86.1107V30.4021H86.7123V34.0984ZM90.6527 30.9519H89.4037V34.0984H88.8021V30.9519H87.5639V30.4021H90.6527V30.9519ZM106.936 30.4021C107.179 30.4021 107.388 30.4472 107.559 30.5446C107.727 30.641 107.853 30.7752 107.94 30.9411C108.026 31.1069 108.066 31.2921 108.066 31.4958C108.066 31.6943 108.032 31.8721 107.961 32.03L107.878 32.1814C107.774 32.3375 107.639 32.4536 107.479 32.5349L108.179 33.9548L108.25 34.0984H107.583L107.556 34.0427L106.884 32.6609H105.604V34.0984H105V30.4021H106.936ZM109.402 30.4665L110.335 32.9734C110.355 33.0268 110.379 33.0927 110.403 33.1628C110.421 33.216 110.44 33.2677 110.458 33.32C110.476 33.2702 110.495 33.2207 110.512 33.1696C110.536 33.1007 110.559 33.035 110.581 32.9782L111.503 30.4675L111.528 30.4021H112.163L112.113 30.5368L110.763 34.0984H110.126L110.102 34.0339L108.731 30.4021H109.377L109.402 30.4665ZM113.547 34.0984H112.946V30.4021H113.547V34.0984ZM68.932 30.948H66.6586V31.9304H68.7064V32.4812H66.6586V33.5505H68.9623V34.0954H66.057V30.4021H68.932V30.948ZM80.7504 30.948H78.4769V31.9304H80.5258V32.4812H78.4769V33.5505H80.7807V34.0954H77.8754V30.4021H80.7504V30.948ZM94.3832 30.948H92.1098V31.9304H94.1576V32.4812H92.1098V33.5505H94.4135V34.0954H91.5082V30.4021H94.3832V30.948ZM103.905 30.948H101.631V31.9304H103.679V32.4812H101.631V33.5505H103.935V34.0954H101.03V30.4021H103.905V30.948ZM121.895 30.948H119.622V31.9304H121.67V32.4812H119.622V33.5505H121.925V34.0954H119.02V30.4021H121.895V30.948ZM82.4496 33.5525H83.1879C83.3881 33.5525 83.5648 33.5295 83.7201 33.4831C83.8736 33.4372 84.0035 33.3657 84.1107 33.2702C84.2159 33.1765 84.2983 33.0519 84.3539 32.8952C84.3956 32.7773 84.4231 32.64 84.434 32.4802L84.4398 32.3122V32.2058C84.4398 32.0251 84.4228 31.8697 84.391 31.7361L84.3539 31.6091C84.2978 31.4511 84.2172 31.3252 84.1146 31.2321C84.0103 31.1374 83.8811 31.0663 83.7269 31.0202C83.5714 30.9738 83.3923 30.9499 83.1898 30.9499H82.4496V33.5525ZM61.8627 31.1081L61.8617 31.1101C61.8291 31.1992 61.7963 31.2867 61.7641 31.3728C61.7317 31.459 61.7032 31.5331 61.6791 31.5945L61.2728 32.6277H62.4574L62.0521 31.5964C62.0418 31.5695 62.0244 31.5276 62.0043 31.4695C61.9853 31.4167 61.9617 31.3545 61.9359 31.2859C61.9123 31.2229 61.8896 31.1577 61.8676 31.0925C61.8658 31.0976 61.8645 31.103 61.8627 31.1081ZM74.5912 32.1648H75.7797C75.9102 32.1648 76.0174 32.1336 76.1049 32.0739L76.1859 32.0046C76.2852 31.8998 76.3421 31.7514 76.3422 31.5456L76.3373 31.4489C76.3292 31.357 76.3098 31.2786 76.2787 31.2136C76.2374 31.1276 76.1772 31.0631 76.098 31.0173C76.0172 30.9719 75.9136 30.946 75.7816 30.946H74.5912V32.1648ZM105.602 32.115H106.894C107.08 32.115 107.214 32.0591 107.31 31.9558C107.407 31.8516 107.461 31.7034 107.461 31.4958L107.456 31.4079C107.448 31.3241 107.427 31.2536 107.397 31.195C107.357 31.1197 107.297 31.0605 107.214 31.0173C107.132 30.9746 107.027 30.9499 106.894 30.9499H105.602V32.115Z" fill="black"/>
<path d="M45.7973 5.70897C46.2758 4.84299 46.9426 4.16752 47.7977 3.68474C48.6529 3.20195 49.6228 2.95948 50.7074 2.95948C52.0345 2.95948 53.1733 3.3102 54.1194 4.01165C55.0655 4.71309 55.6976 5.67 56.0159 6.8802H53.0196C52.7966 6.41257 52.4805 6.05752 52.0713 5.81288C51.6622 5.56824 51.1967 5.44701 50.6771 5.44701C49.8371 5.44701 49.1573 5.73927 48.6377 6.32381C48.116 6.90835 47.8562 7.68989 47.8562 8.66628C47.8562 9.64268 48.116 10.4242 48.6377 11.0088C49.1573 11.5933 49.8393 11.8856 50.6771 11.8856C51.1989 11.8856 51.6622 11.7643 52.0713 11.5197C52.4805 11.275 52.7966 10.92 53.0196 10.4524H56.0159C55.6976 11.6647 55.0655 12.6173 54.1194 13.3144C53.1733 14.0115 52.0367 14.3579 50.7074 14.3579C49.6228 14.3579 48.6529 14.1155 47.7977 13.6327C46.9426 13.1499 46.2758 12.4766 45.7973 11.6171C45.3189 10.7555 45.0807 9.77257 45.0807 8.66845C45.0807 7.56433 45.3189 6.57711 45.7973 5.71113V5.70897Z" fill="#122241"/>
<path d="M68.1742 3.08722V14.2757H65.4486V9.66866H61.2096V14.2757H58.4839V3.08722H61.2096V7.47124H65.4486V3.08722H68.1742Z" fill="#122241"/>
<path d="M73.658 3.08722V14.2757H70.9324V3.08722H73.658Z" fill="#122241"/>
<path d="M76.6868 5.70897C77.1653 4.84299 77.8321 4.16752 78.6872 3.68474C79.5424 3.20195 80.5123 2.95948 81.5969 2.95948C82.924 2.95948 84.0628 3.3102 85.0089 4.01165C85.955 4.71309 86.5871 5.67 86.9054 6.8802H83.9091C83.6861 6.41257 83.37 6.05752 82.9608 5.81288C82.5517 5.56824 82.0862 5.44701 81.5666 5.44701C80.7266 5.44701 80.0468 5.73927 79.5272 6.32381C79.0055 6.90835 78.7457 7.68989 78.7457 8.66628C78.7457 9.64268 79.0055 10.4242 79.5272 11.0088C80.0468 11.5933 80.7288 11.8856 81.5666 11.8856C82.0884 11.8856 82.5517 11.7643 82.9608 11.5197C83.37 11.275 83.6861 10.92 83.9091 10.4524H86.9054C86.5871 11.6647 85.955 12.6173 85.0089 13.3144C84.0628 14.0115 82.9262 14.3579 81.5969 14.3579C80.5123 14.3579 79.5424 14.1155 78.6872 13.6327C77.8321 13.1499 77.1653 12.4766 76.6868 11.6171C76.2084 10.7555 75.9702 9.77257 75.9702 8.66845C75.9702 7.56433 76.2084 6.57711 76.6868 5.71113V5.70897Z" fill="#122241"/>
<path d="M96.3402 12.2991H92.164L91.495 14.2757H88.6416L92.6901 3.08722H95.8466L99.8951 14.2757H97.0092L96.3402 12.2991ZM95.6388 10.1969L94.251 6.10083L92.8806 10.1969H95.6388Z" fill="#122241"/>
<path d="M109.345 6.62474C109.144 6.25237 108.854 5.96876 108.477 5.77175C108.1 5.57474 107.656 5.47732 107.145 5.47732C106.264 5.47732 105.556 5.76742 105.026 6.34546C104.496 6.92567 104.229 7.69856 104.229 8.66412C104.229 9.69464 104.509 10.5 105.067 11.078C105.626 11.6582 106.392 11.9462 107.371 11.9462C108.04 11.9462 108.607 11.7773 109.068 11.4353C109.529 11.0954 109.867 10.6061 110.079 9.96959H106.619V7.96052H112.549V10.4957C112.348 11.1755 112.004 11.8076 111.521 12.3922C111.038 12.9767 110.423 13.4487 109.681 13.8102C108.936 14.1718 108.098 14.3514 107.163 14.3514C106.056 14.3514 105.071 14.109 104.205 13.6262C103.339 13.1434 102.664 12.4701 102.181 11.6106C101.698 10.749 101.456 9.76608 101.456 8.66196C101.456 7.55783 101.698 6.57062 102.181 5.70464C102.664 4.83866 103.337 4.1632 104.197 3.68041C105.058 3.19763 106.041 2.95515 107.145 2.95515C108.483 2.95515 109.614 3.2799 110.534 3.92722C111.452 4.57454 112.062 5.47299 112.359 6.62041H109.345V6.62474Z" fill="#122241"/>
<path d="M117.26 13.6543C116.383 13.165 115.688 12.4831 115.171 11.6063C114.656 10.7295 114.398 9.74443 114.398 8.64897C114.398 7.5535 114.656 6.57062 115.171 5.70031C115.686 4.83 116.383 4.14804 117.26 3.66093C118.137 3.17165 119.1 2.92701 120.152 2.92701C121.205 2.92701 122.168 3.17165 123.045 3.66093C123.922 4.15021 124.612 4.83 125.117 5.70031C125.621 6.57062 125.874 7.55567 125.874 8.64897C125.874 9.74227 125.619 10.7295 125.11 11.6063C124.599 12.4831 123.909 13.165 123.038 13.6543C122.166 14.1436 121.205 14.3882 120.152 14.3882C119.1 14.3882 118.137 14.1436 117.26 13.6543ZM122.296 11.0088C122.833 10.4134 123.101 9.62752 123.101 8.64897C123.101 7.67041 122.833 6.87155 122.296 6.28268C121.759 5.69381 121.044 5.39722 120.152 5.39722C119.261 5.39722 118.529 5.68948 117.992 6.27402C117.455 6.85856 117.186 7.65093 117.186 8.64897C117.186 9.64701 117.455 10.4264 117.992 11.0153C118.529 11.6041 119.248 11.9007 120.152 11.9007C121.057 11.9007 121.759 11.6041 122.296 11.0088Z" fill="#122241"/>
</g>
<defs>
<clipPath id="clip0_517_519">
<rect width="126" height="43.8056" fill="white"/>
</clipPath>
</defs>
</svg>
